
<svg xmlns="http://www.w3.org/2000/svg" width="95.087" height="95.087" viewBox="0 0 95.087 95.087">
  <g id="_18-" data-name="18-" transform="translate(0 -0.001)">
    <path id="Path_37710" data-name="Path 37710" d="M47.5,0A47.5,47.5,0,1,1,0,47.5,47.485,47.485,0,0,1,47.5,0Z" transform="translate(0.043 0.001)" fill="#fff" opacity="0.3"/>
    <path id="Path_37700" data-name="Path 37700" d="M109.813,143.154a33.342,33.342,0,1,0-33.341-33.342A33.406,33.406,0,0,0,109.813,143.154Z" transform="translate(-62.27 -62.268)" fill="#fafafa" fill-rule="evenodd"/>
    <g id="Group_17153" data-name="Group 17153" transform="translate(0 0.001)">
      <path id="Path_37702" data-name="Path 37702" d="M91.3,28.918a1.857,1.857,0,0,0-3.417,1.456A43.8,43.8,0,1,1,64.713,7.207,1.857,1.857,0,0,0,66.169,3.79,47.549,47.549,0,0,0,13.925,81.163,47.554,47.554,0,0,0,91.3,28.918Z" transform="translate(0 -0.001)" fill="#fafafa" fill-rule="evenodd"/>
      <path id="Path_37703" data-name="Path 37703" d="M368.2,24.126h8.214v8.622a1.857,1.857,0,1,0,3.714,0V24.126h8.214a1.857,1.857,0,0,0,0-3.714h-8.214V11.789a1.857,1.857,0,1,0-3.714,0v8.622H368.2a1.857,1.857,0,1,0,0,3.714Z" transform="translate(-298.305 -8.088)" fill="#3c2875" fill-rule="evenodd"/>
      <path id="Path_37704" data-name="Path 37704" d="M240.533,178.918a11.22,11.22,0,1,0,17.393-9.363,11.22,11.22,0,1,0-12.346,0A11.218,11.218,0,0,0,240.533,178.918Zm3.714-18.726a7.506,7.506,0,1,1,7.506,7.506A7.514,7.514,0,0,1,244.247,160.191Zm7.506,11.22a7.506,7.506,0,1,1-7.506,7.506A7.515,7.515,0,0,1,251.753,171.412Z" transform="translate(-195.862 -121.305)" fill="#3c2875" fill-rule="evenodd"/>
      <path id="Path_37705" data-name="Path 37705" d="M147.966,154.534c0-.016,0-.032,0-.047-.006-.057-.015-.115-.026-.172,0-.014-.006-.027-.009-.04-.011-.049-.022-.1-.037-.145-.01-.031-.022-.061-.033-.092s-.018-.053-.029-.079c-.023-.054-.048-.107-.076-.158l0-.006c-.029-.054-.061-.106-.1-.157-.008-.012-.018-.023-.026-.035-.027-.038-.055-.076-.085-.112l-.005-.007c-.013-.016-.027-.029-.041-.044s-.051-.057-.078-.083-.043-.04-.065-.059-.046-.042-.07-.061-.051-.038-.076-.057-.046-.034-.07-.05-.053-.033-.079-.048-.051-.031-.078-.045-.051-.025-.076-.037-.059-.028-.09-.04l-.071-.026c-.033-.012-.067-.024-.1-.034l-.07-.018c-.035-.009-.07-.018-.105-.025s-.052-.008-.079-.012-.066-.01-.1-.013-.067,0-.1-.005-.047,0-.071,0h-.01c-.042,0-.083,0-.124.006l-.06,0c-.048.005-.1.013-.144.022s-.075.016-.112.025-.067.016-.1.026-.067.024-.1.037-.047.016-.07.026c-.05.021-.1.045-.147.071l-.021.011c-.052.029-.1.06-.152.093l-.04.03c-.036.026-.072.052-.107.081l-.007.006-7.37,6.2a1.857,1.857,0,1,0,2.392,2.842l4.317-3.633V190.7a1.857,1.857,0,1,0,3.714,0V154.679s0-.006,0-.009C147.973,154.625,147.97,154.579,147.966,154.534Z" transform="translate(-111.467 -124.441)" fill="#3c2875" fill-rule="evenodd"/>
      <path id="Path_37706" data-name="Path 37706" d="M70.186,247.857a1.857,1.857,0,1,0-1.857,1.857A1.861,1.861,0,0,0,70.186,247.857Z" transform="translate(-54.127 -200.314)" fill="#d33465" fill-rule="evenodd"/>
    </g>
  </g>
</svg>
